<?xml version="1.0" encoding="UTF-8" standalone="no"?>
<!-- Created with Inkscape (http://www.inkscape.org/) -->

<svg
   xmlns:dc="http://purl.org/dc/elements/1.1/"
   xmlns:cc="http://creativecommons.org/ns#"
   xmlns:rdf="http://www.w3.org/1999/02/22-rdf-syntax-ns#"
   xmlns:svg="http://www.w3.org/2000/svg"
   xmlns="http://www.w3.org/2000/svg"
   xmlns:sodipodi="http://sodipodi.sourceforge.net/DTD/sodipodi-0.dtd"
   xmlns:inkscape="http://www.inkscape.org/namespaces/inkscape"
   width="50mm"
   height="50mm"
   viewBox="0 0 177.16535 177.16536"
   id="svg2"
   version="1.1"
   inkscape:version="0.91 r13725"
   sodipodi:docname="circle logo.svg"
   inkscape:export-filename="/home/alec/Dropbox/Projects/Brookings/DataViz/metro-index/src/assets/circlelogo.png"
   inkscape:export-xdpi="150"
   inkscape:export-ydpi="150">
  <defs
     id="defs4" />
  <sodipodi:namedview
     id="base"
     pagecolor="#ffffff"
     bordercolor="#666666"
     borderopacity="1.0"
     inkscape:pageopacity="0.0"
     inkscape:pageshadow="2"
     inkscape:zoom="1.4"
     inkscape:cx="57.851063"
     inkscape:cy="86.279343"
     inkscape:document-units="px"
     inkscape:current-layer="layer1"
     showgrid="false"
     inkscape:window-width="1871"
     inkscape:window-height="1056"
     inkscape:window-x="49"
     inkscape:window-y="24"
     inkscape:window-maximized="1"
     fit-margin-top="0"
     fit-margin-left="0"
     fit-margin-right="0"
     fit-margin-bottom="0" />
  <metadata
     id="metadata7">
    <rdf:RDF>
      <cc:Work
         rdf:about="">
        <dc:format>image/svg+xml</dc:format>
        <dc:type
           rdf:resource="http://purl.org/dc/dcmitype/StillImage" />
        <dc:title></dc:title>
      </cc:Work>
    </rdf:RDF>
  </metadata>
  <g
     inkscape:label="Layer 1"
     inkscape:groupmode="layer"
     id="layer1"
     transform="translate(-76.83848,-378.27252)">
    <g
       id="g4254"
       transform="translate(0.70447404,-0.70447283)">
      <path
         style="opacity:1;fill:#053769;fill-opacity:1;stroke:#ffffff;stroke-width:1;stroke-linecap:round;stroke-linejoin:round;stroke-miterlimit:4;stroke-dasharray:none;stroke-dashoffset:0;stroke-opacity:0.4321608"
         d="m 252.09487,467.55967 a 87.378197,87.378197 0 0 1 -87.37819,87.3782 87.378197,87.378197 0 0 1 -87.378199,-87.3782 87.378197,87.378197 0 0 1 87.378199,-87.3782 87.378197,87.378197 0 0 1 87.37819,87.3782 z"
         id="path4145"
         inkscape:connector-curvature="0" />
      <path
         style="opacity:1;fill:#ffffff;fill-opacity:1;stroke:#ffffff;stroke-width:1;stroke-linecap:round;stroke-linejoin:round;stroke-miterlimit:4;stroke-dasharray:none;stroke-dashoffset:0;stroke-opacity:0.4321608"
         d="m 219.29663,452.69264 a 56.568546,56.568546 0 0 1 -39.71291,69.44698 56.568546,56.568546 0 0 1 -69.447,-39.71291 56.568546,56.568546 0 0 1 39.71293,-69.44699 56.568546,56.568546 0 0 1 69.44698,39.71292 z"
         id="path4136"
         inkscape:connector-curvature="0" />
      <g
         style="font-style:normal;font-variant:normal;font-weight:normal;font-stretch:normal;font-size:20px;line-height:150%;font-family:Arial;-inkscape-font-specification:Arial;letter-spacing:0px;word-spacing:0px;fill:#ffffff;fill-opacity:1;stroke:none;stroke-width:1px;stroke-linecap:butt;stroke-linejoin:miter;stroke-opacity:1"
         id="text4138">
        <path
           d="m 235.29387,457.50053 1.66119,-0.24856 0.90708,5.99624 -5.25402,0.78614 q -1.30767,-1.21637 -2.0875,-2.60058 -0.77017,-1.38566 -1.00138,-2.93096 -0.31215,-2.08615 0.32061,-3.92859 0.64387,-1.83422 2.20398,-2.95635 1.56011,-1.12212 3.64626,-1.43426 2.06683,-0.30926 3.9822,0.28297 1.92647,0.60044 3.03847,2.09294 1.11201,1.4925 1.42849,3.60763 0.22978,1.53564 -0.0875,2.84702 -0.30615,1.3196 -1.0892,2.15759 -0.78305,0.83799 -2.15754,1.41888 l -0.71648,-1.62081 q 1.03402,-0.48057 1.58133,-1.0463 0.5473,-0.56573 0.78281,-1.49954 0.24516,-0.93524 0.0848,-2.00729 -0.1922,-1.28453 -0.72836,-2.16212 -0.5265,-0.87903 -1.25064,-1.36314 -0.7227,-0.47445 -1.53337,-0.67901 -1.39443,-0.34432 -2.93007,-0.11454 -1.89299,0.28324 -3.07104,1.12109 -1.1766,0.8475 -1.6083,2.18589 -0.4317,1.33838 -0.22216,2.73881 0.18208,1.21692 0.81908,2.30653 0.64667,1.08816 1.26746,1.60748 l 2.63666,-0.39452 -0.62284,-4.16264 z"
           style="fill:#ffffff;fill-opacity:1"
           id="path4157"
           inkscape:connector-curvature="0" />
        <path
           d="m 230.63836,467.19039 14.2696,1.15662 -0.51283,6.32691 q -0.15463,1.90781 -0.62446,2.86909 -0.46009,0.96206 -1.48158,1.47692 -1.0215,0.51486 -2.19928,0.4194 -1.51846,-0.12308 -2.48028,-1.19061 -0.96182,-1.06752 -1.07762,-3.14421 -0.4209,0.7203 -0.80287,1.08125 -0.82629,0.76582 -2.0251,1.41327 l -4.08493,2.1673 0.19251,-2.37502 3.12184,-1.64771 q 1.35191,-0.72322 2.07666,-1.20334 0.72475,-0.48013 1.03201,-0.88632 0.30647,-0.39646 0.44904,-0.8258 0.0942,-0.31569 0.15335,-1.04571 l 0.17752,-2.19009 -6.33664,-0.51362 0.15306,-1.88833 z m 7.81884,2.5345 -0.329,4.05895 q -0.10493,1.29459 0.0987,2.04592 0.21337,0.75212 0.76663,1.17907 0.56298,0.42774 1.25408,0.48376 1.0123,0.082 1.72442,-0.60485 0.71133,-0.67717 0.83993,-2.26376 l 0.36608,-4.51644 -4.72084,-0.38265 z"
           style="fill:#ffffff;fill-opacity:1"
           id="path4159"
           inkscape:connector-curvature="0" />
        <path
           d="m 235.98787,483.15333 q 3.39445,1.08769 4.72614,3.52433 1.341,2.43962 0.41721,5.32258 -0.60493,1.88787 -1.99275,3.11469 -1.38782,1.22682 -3.2593,1.49879 -1.86515,0.28425 -3.91111,-0.37134 -2.07387,-0.66453 -3.44245,-2.02599 -1.36858,-1.36146 -1.72317,-3.16711 -0.34529,-1.80268 0.22388,-3.57895 0.61686,-1.92507 2.03258,-3.14295 1.41572,-1.21788 3.27491,-1.48353 1.85919,-0.26565 3.65406,0.30948 z m -0.62389,1.85103 q -2.46446,-0.78969 -4.3105,0.075 -1.83971,0.87693 -2.4804,2.8764 -0.65261,2.03666 0.35939,3.80686 1.00902,1.77949 3.64088,2.62282 1.66467,0.53342 3.08333,0.36246 1.42498,-0.15868 2.45252,-1.02922 1.03387,-0.85827 1.46596,-2.20675 0.61388,-1.91576 -0.26269,-3.7246 -0.87024,-1.79655 -3.94849,-2.78292 z"
           style="fill:#ffffff;fill-opacity:1"
           id="path4161"
           inkscape:connector-curvature="0" />
        <path
           d="m 222.86515,498.49124 14.09828,4.54194 -1.05039,1.63503 -9.07288,-3.24027 q -1.43067,-0.50124 -2.79212,-1.07409 1.63522,1.70052 1.87822,1.9727 l 6.66142,7.51789 -1.23513,1.9226 -7.2049,-2.19112 q -2.68467,-0.80774 -4.86596,-1.80281 0.99426,0.96374 2.23566,2.28357 l 6.52568,6.86194 -1.02928,1.60216 -9.92311,-11.04098 0.98705,-1.53643 10.80855,3.35709 q 1.35612,0.41854 1.65599,0.52993 -0.70844,-0.72209 -1.18622,-1.26117 l -7.53597,-8.45116 1.04511,-1.62682 z"
           style="fill:#ffffff;fill-opacity:1"
           id="path4163"
           inkscape:connector-curvature="0" />
        <path
           d="m 210.76135,514.35843 8.73142,9.12153 3.40734,-3.26162 1.16824,1.22043 -8.19738,7.8468 -1.16824,-1.22043 3.42146,-3.27513 -8.73143,-9.12153 1.36859,-1.31005 z"
           style="fill:#ffffff;fill-opacity:1"
           id="path4165"
           inkscape:connector-curvature="0" />
        <path
           d="m 204.35172,520.19633 7.59559,12.13534 -1.60591,1.00515 -3.11906,-4.98327 -6.30773,3.94804 3.11906,4.98328 -1.6059,1.00514 -7.59559,-12.13534 1.60591,-1.00515 3.58018,5.72 6.30773,-3.94804 -3.58018,-5.72 1.6059,-1.00515 z"
           style="fill:#ffffff;fill-opacity:1"
           id="path4167"
           inkscape:connector-curvature="0" />
        <path
           d="m 164.95296,533.39966 -1.06522,14.27672 -5.38542,-0.40182 q -1.42183,-0.10609 -2.16153,-0.29838 -1.03868,-0.25376 -1.71254,-0.80347 -0.67458,-0.53998 -1.03696,-1.45816 -0.37211,-0.9189 -0.29291,-1.9804 0.13588,-1.82111 1.38923,-3.00066 1.25262,-1.1698 4.28131,-0.94383 l 3.6617,0.27321 0.43306,-5.80417 1.88928,0.14096 z m -2.44805,7.34798 -3.69091,-0.27539 q -1.83085,-0.1366 -2.65106,0.4877 -0.82021,0.62429 -0.91249,1.86109 -0.0668,0.89595 0.34363,1.5631 0.40002,0.67617 1.12489,0.9359 0.46774,0.16221 1.75323,0.25812 l 3.65196,0.27249 0.38075,-5.10301 z"
           style="fill:#ffffff;fill-opacity:1"
           id="path4169"
           inkscape:connector-curvature="0" />
        <path
           d="m 151.59994,532.12015 -4.054,13.73042 -6.08784,-1.79747 q -1.83572,-0.54201 -2.68043,-1.19871 -0.84748,-0.64734 -1.14226,-1.75262 -0.29479,-1.10527 0.0398,-2.23855 0.43139,-1.46108 1.67324,-2.18393 1.24185,-0.72286 3.29825,-0.41098 -0.61885,-0.55947 -0.89394,-1.00726 -0.5804,-0.96559 -0.96867,-2.27157 l -1.28493,-4.44216 2.28528,0.67474 0.97356,3.39308 q 0.43108,1.47136 0.75263,2.27907 0.32155,0.8077 0.65622,1.19162 0.3253,0.38116 0.71635,0.60863 0.28972,0.15681 0.99216,0.36421 l 2.10733,0.62221 1.80024,-6.09721 1.81699,0.53648 z m -4.08181,7.1342 -3.90558,-1.15315 q -1.24567,-0.36779 -2.02278,-0.32231 -0.77987,0.0548 -1.31106,0.50895 -0.53396,0.46347 -0.7303,1.12845 -0.28759,0.97405 0.23894,1.81174 0.51716,0.83491 2.0438,1.28567 l 4.34579,1.28312 1.34119,-4.54247 z"
           style="fill:#ffffff;fill-opacity:1"
           id="path4171"
           inkscape:connector-curvature="0" />
        <path
           d="m 134.8894,534.09567 q -1.75469,3.10264 -4.41108,3.91147 -2.66121,0.81734 -5.29633,-0.67295 -1.72557,-0.9759 -2.64482,-2.58403 -0.91925,-1.60814 -0.8053,-3.49584 0.10064,-1.884 1.15826,-3.75409 1.07205,-1.89558 2.68318,-2.95899 1.61113,-1.0634 3.45117,-1.04372 1.83523,0.0282 3.4588,0.94639 1.75958,0.99513 2.66441,2.62877 0.90482,1.63364 0.78718,3.50802 -0.11764,1.87439 -1.04547,3.51497 z m -1.68565,-0.98698 q 1.27395,-2.2526 0.80242,-4.23581 -0.48483,-1.97951 -2.31241,-3.0131 -1.86159,-1.05281 -3.80048,-0.42159 -1.94739,0.62641 -3.30788,3.03202 -0.86052,1.52157 -0.98137,2.94537 -0.13417,1.4275 0.50944,2.61049 0.6303,1.18668 1.86286,1.88375 1.75108,0.99032 3.70028,0.49956 1.9359,-0.48706 3.52714,-3.30069 z"
           style="fill:#ffffff;fill-opacity:1"
           id="path4173"
           inkscape:connector-curvature="0" />
        <path
           d="m 121.90474,523.53331 -1.43168,-1.08095 q 0.62522,-0.8827 0.7488,-1.70498 0.10979,-0.82156 -0.32757,-1.79472 -0.44389,-0.9659 -1.35033,-1.7835 -0.80492,-0.72604 -1.63715,-1.04271 -0.83223,-0.31667 -1.50237,-0.17151 -0.68393,0.14587 -1.12871,0.63897 -0.45132,0.50036 -0.49484,1.13182 -0.0501,0.63872 0.38814,1.49428 0.2774,0.55269 1.42825,2.22202 1.14431,1.67658 1.45043,2.5182 0.40166,1.08563 0.24893,2.01312 -0.16652,0.92821 -0.82715,1.66062 -0.72604,0.80492 -1.8108,1.08899 -1.09131,0.29132 -2.29579,-0.13754 -1.20448,-0.42887 -2.2777,-1.39692 -1.182,-1.06616 -1.73453,-2.26155 -0.56631,-1.19469 -0.385,-2.37258 0.18132,-1.1779 0.98883,-2.14605 l 1.44036,1.11508 q -0.80041,1.10607 -0.63393,2.18999 0.15923,1.07737 1.38474,2.18277 1.27627,1.15119 2.2888,1.20965 0.99874,0.0592 1.59395,-0.60071 0.51673,-0.57287 0.43698,-1.31553 -0.0725,-0.73612 -1.43066,-2.67134 -1.37194,-1.93451 -1.74844,-2.80017 -0.54229,-1.26507 -0.38941,-2.32395 0.14633,-1.05163 0.91815,-1.90731 0.76528,-0.84843 1.93138,-1.16435 1.15956,-0.30867 2.45262,0.0949 1.27927,0.40427 2.41776,1.43118 1.44306,1.30163 2.04264,2.60524 0.59234,1.29706 0.39197,2.64188 -0.21417,1.34554 -1.14667,2.43767 z"
           style="fill:#ffffff;fill-opacity:1"
           id="path4175"
           inkscape:connector-curvature="0" />
        <path
           d="m 114.78703,510.49492 -11.54473,8.46632 -3.19364,-4.35486 q -0.843168,-1.14975 -1.177602,-1.83698 -0.481963,-0.95445 -0.501923,-1.82385 -0.02783,-0.86363 0.434684,-1.73567 0.456744,-0.87991 1.315121,-1.5094 1.47262,-1.07995 3.18361,-0.89359 1.70311,0.19214 3.49917,2.64126 l 2.17145,2.96099 4.69349,-3.44197 1.12037,1.52775 z m -7.17624,2.91332 -2.18877,-2.98462 q -1.08572,-1.4805 -2.0932,-1.69837 -1.00749,-0.21786 -2.00761,0.51558 -0.7245,0.53131 -0.96494,1.27682 -0.2541,0.7434 0.0194,1.46318 0.1806,0.46095 0.94292,1.50045 l 2.16567,2.95312 4.12649,-3.02616 z"
           style="fill:#ffffff;fill-opacity:1"
           id="path4177"
           inkscape:connector-curvature="0" />
        <path
           d="m 107.12019,499.48591 -13.024427,5.94338 -4.297397,-9.41739 1.536989,-0.70137 3.510892,7.69383 3.989064,-1.82031 -3.287914,-7.20519 1.528105,-0.69731 3.287918,7.20519 4.43328,-2.02302 -3.64874,-7.9959 1.53699,-0.70137 4.43524,9.71946 z"
           style="fill:#ffffff;fill-opacity:1"
           id="path4179"
           inkscape:connector-curvature="0" />
        <path
           d="m 101.82473,487.20399 -13.977838,3.09506 -1.372299,-6.19754 q -0.413802,-1.8688 -0.24776,-2.92578 0.156507,-1.05488 0.98119,-1.84762 0.824683,-0.79273 1.97838,-1.04819 1.48741,-0.32936 2.720855,0.40775 1.233445,0.7371 1.95542,2.68769 0.190219,-0.81229 0.449018,-1.26968 0.564251,-0.97512 1.519355,-1.94677 l 3.265974,-3.27373 0.51514,2.32647 -2.498499,2.49365 q -1.079123,1.08913 -1.630433,1.76132 -0.55131,0.6722 -0.725387,1.15084 -0.176188,0.4691 -0.186064,0.92139 0.0029,0.32942 0.16127,1.04452 l 0.475026,2.1453 6.207082,-1.37441 0.40957,1.84973 z m -8.218478,-0.12063 -0.880383,-3.97596 q -0.280794,-1.26811 -0.696572,-1.92621 -0.425314,-0.65599 -1.079732,-0.90117 -0.663954,-0.24306 -1.340916,-0.0932 -0.991607,0.21957 -1.469977,1.08566 -0.480481,0.85655 -0.136351,2.41071 l 0.979611,4.42409 4.62432,-1.02395 z"
           style="fill:#ffffff;fill-opacity:1"
           id="path4181"
           inkscape:connector-curvature="0" />
        <path
           d="m 99.244658,472.7004 -14.285108,0.94614 -0.125205,-1.89039 14.285108,-0.94614 0.125205,1.89039 z"
           style="fill:#ffffff;fill-opacity:1"
           id="path4183"
           inkscape:connector-curvature="0" />
        <path
           d="m 99.13726,463.83976 -12.595882,-0.88527 -0.330692,4.70519 -1.685296,-0.11845 0.795578,-11.31973 1.685296,0.11844 -0.332061,4.72468 12.595882,0.88527 -0.132825,1.88987 z"
           style="fill:#ffffff;fill-opacity:1"
           id="path4185"
           inkscape:connector-curvature="0" />
        <path
           d="m 101.05161,451.38702 -5.853269,-1.58646 -9.407989,3.16672 0.602907,-2.22443 4.904398,-1.59481 q 1.373143,-0.43726 2.718185,-0.77084 -0.915329,-0.91588 -2.032467,-2.16975 l -3.33688,-3.77793 0.577359,-2.13017 6.470097,7.67265 5.853269,1.58647 -0.49561,1.82855 z"
           style="fill:#ffffff;fill-opacity:1"
           id="path4187"
           inkscape:connector-curvature="0" />
        <path
           d="m 119.56332,419.82731 -9.70659,-10.52339 1.39259,-1.2845 9.70659,10.52339 -1.39259,1.2845 z"
           style="fill:#ffffff;fill-opacity:1"
           id="path4189"
           inkscape:connector-curvature="0" />
        <path
           d="m 123.33761,416.201 -7.98694,-11.88143 1.61282,-1.08417 12.51137,5.1334 -6.27078,-9.32845 1.50746,-1.01335 7.98694,11.88142 -1.61282,1.08418 -12.51682,-5.14152 6.27623,9.33657 -1.50746,1.01335 z"
           style="fill:#ffffff;fill-opacity:1"
           id="path4191"
           inkscape:connector-curvature="0" />
        <path
           d="m 143.26091,400.02453 1.93914,-0.24074 q 0.29082,2.39118 -0.71031,4.1008 -0.99556,1.69697 -3.07981,2.50758 -2.15706,0.83893 -3.853,0.49261 -1.69038,-0.35896 -3.04808,-1.74843 -1.34859,-1.39301 -2.09195,-3.30433 -0.81061,-2.08424 -0.62054,-3.93946 0.19563,-1.86786 1.34947,-3.23869 1.15941,-1.38348 2.9251,-2.0702 2.00233,-0.77875 3.76401,-0.29035 1.76168,0.4884 3.01725,2.12716 l -1.5791,1.08567 q -1.03054,-1.27572 -2.17179,-1.59677 -1.14125,-0.32105 -2.47917,0.1993 -1.53816,0.59822 -2.28901,1.73898 -0.74175,1.13722 -0.67547,2.54695 0.0628,1.40064 0.57601,2.72035 0.66194,1.70199 1.64899,2.78505 0.99262,1.07042 2.28353,1.29135 1.29092,0.22093 2.51052,-0.2534 1.48355,-0.57699 2.17928,-1.83252 0.69573,-1.25554 0.40493,-3.08091 z"
           style="fill:#ffffff;fill-opacity:1"
           id="path4193"
           inkscape:connector-curvature="0" />
        <path
           d="m 149.11641,403.61065 -2.53522,-14.09014 1.86458,-0.33549 2.23605,12.42739 6.93935,-1.24859 0.29917,1.66275 -8.80393,1.58408 z"
           style="fill:#ffffff;fill-opacity:1"
           id="path4195"
           inkscape:connector-curvature="0" />
        <path
           d="m 169.84271,387.60518 1.89424,0.0328 -0.14325,8.27024 q -0.0374,2.15788 -0.54757,3.41876 -0.51019,1.26089 -1.80317,2.03939 -1.28304,0.76891 -3.35304,0.73306 -2.01142,-0.0348 -3.27851,-0.75025 -1.2671,-0.71541 -1.79123,-2.03328 -0.52396,-1.32764 -0.48455,-3.60268 l 0.14325,-8.27025 1.89424,0.0328 -0.14308,8.26048 q -0.0323,1.86496 0.29405,2.75941 0.33629,0.88487 1.16772,1.37786 0.8412,0.49315 2.06172,0.5143 2.08953,0.0362 2.99447,-0.89554 0.90494,-0.93174 0.95162,-3.62664 l 0.14309,-8.26048 z"
           style="fill:#ffffff;fill-opacity:1"
           id="path4197"
           inkscape:connector-curvature="0" />
        <path
           d="m 175.07915,397.77321 1.77559,0.25582 q -0.12161,1.07484 0.16699,1.85466 0.30033,0.77255 1.15302,1.41381 0.85492,0.63176 2.0434,0.91041 1.05536,0.24744 1.93709,0.12317 0.88172,-0.12428 1.39861,-0.57482 0.52862,-0.45783 0.6802,-1.10436 0.15382,-0.65604 -0.1128,-1.2301 -0.2644,-0.58358 -1.06109,-1.12143 -0.50969,-0.35021 -2.32326,-1.25688 -1.81134,-0.91618 -2.48562,-1.50558 -0.87571,-0.757 -1.18955,-1.64305 -0.3021,-0.89332 -0.077,-1.85361 0.24744,-1.05537 1.06043,-1.82767 0.81523,-0.78182 2.07713,-0.98748 1.2619,-0.20565 2.66906,0.12427 1.54977,0.36336 2.61058,1.1437 1.07256,0.77305 1.4822,1.8922 0.40965,1.11915 0.16962,2.3568 l -1.79966,-0.28152 q 0.16724,-1.35502 -0.50166,-2.22401 -0.6594,-0.86677 -2.26622,-1.2435 -1.67337,-0.39234 -2.5884,0.0451 -0.90329,0.43016 -1.10615,1.29537 -0.1761,0.75111 0.25215,1.36308 0.41875,0.60973 2.54221,1.64924 2.1352,1.03224 2.88272,1.60872 1.08547,0.8463 1.46259,1.84749 0.37934,0.99168 0.1163,2.1136 -0.26082,1.11241 -1.12968,1.95186 -0.86663,0.82995 -2.1939,1.10052 -1.31554,0.26329 -2.80826,-0.0867 -1.89205,-0.44361 -3.04631,-1.29601 -1.14475,-0.85016 -1.61826,-2.12471 -0.46178,-1.28184 -0.17212,-2.6884 z"
           style="fill:#ffffff;fill-opacity:1"
           id="path4199"
           inkscape:connector-curvature="0" />
        <path
           d="m 187.82898,406.0517 5.23331,-13.32561 1.76341,0.69253 -5.2333,13.32562 -1.76342,-0.69254 z"
           style="fill:#ffffff;fill-opacity:1"
           id="path4201"
           inkscape:connector-curvature="0" />
        <path
           d="m 195.83199,401.53927 q 1.81421,-3.06822 4.48572,-3.82567 2.67647,-0.76585 5.28235,0.77499 1.70644,1.009 2.5945,2.63457 0.88805,1.62557 0.73771,3.51072 -0.13696,1.88171 -1.23046,3.73104 -1.10841,1.87456 -2.73975,2.90669 -1.63134,1.03213 -3.47066,0.97696 -1.83434,-0.0636 -3.4399,-1.01293 -1.74006,-1.02888 -2.61321,-2.67967 -0.87314,-1.65079 -0.71937,-3.52256 0.15378,-1.87177 1.11307,-3.49414 z m 1.66631,1.0193 q -1.31717,2.22761 -0.88398,4.21955 0.44656,1.98849 2.25387,3.05714 1.84093,1.08853 3.79163,0.49482 1.95911,-0.58873 3.36575,-2.96765 0.88971,-1.50469 1.038,-2.9259 0.16168,-1.42464 -0.45899,-2.61982 -0.60729,-1.19862 -1.82617,-1.91934 -1.73166,-1.02391 -3.68996,-0.57084 -1.94494,0.44963 -3.59015,3.23204 z"
           style="fill:#ffffff;fill-opacity:1"
           id="path4203"
           inkscape:connector-curvature="0" />
        <path
           d="m 205.95161,416.09999 9.87999,-10.36075 1.40641,1.34114 -2.3152,13.32389 7.75707,-8.13454 1.31453,1.25354 -9.87999,10.36075 -1.4064,-1.34114 2.32194,-13.33096 -7.76382,8.14161 -1.31453,-1.25354 z"
           style="fill:#ffffff;fill-opacity:1"
           id="path4205"
           inkscape:connector-curvature="0" />
      </g>
    </g>
  </g>
</svg>
